<svg xmlns="http://www.w3.org/2000/svg" width="303.971" height="573.071" viewBox="0 0 303.971 573.071"><defs><style>.a{fill:#ffa7a9;}.b{fill:#00a35e;stroke:#00a35e;stroke-width:1.5px;}</style></defs><g transform="translate(-80.027 -2032.265)"><g transform="translate(100.756 2341.307) rotate(-3)"><path class="a" d="M39.778.038.772,10.563a1.043,1.043,0,0,0-.539,1.664l20.641,25.46a1.043,1.043,0,0,0,1.739-.183L40.979,1.519A1.043,1.043,0,0,0,39.778.038Z" transform="matrix(-0.208, 0.978, -0.978, -0.208, 49.455, 80.729)"/><path class="a" d="M1.564,41.425,36.6,21.312a1.043,1.043,0,0,0,.1-1.746L10.255.2A1.043,1.043,0,0,0,8.62.822L.025,40.3A1.043,1.043,0,0,0,1.564,41.425Z" transform="matrix(-0.208, 0.978, -0.978, -0.208, 86.135, 197.475)"/><path class="a" d="M0,1.084,1.227,33.633a1.043,1.043,0,0,0,1.5.9L26.46,22.91a1.043,1.043,0,0,0,.212-1.736L1.713.246A1.043,1.043,0,0,0,0,1.084Z" transform="matrix(-0.208, 0.978, -0.978, -0.208, 143.512, 162.32)"/><path class="a" d="M26.85,11.356,1.467.091A1.043,1.043,0,0,0,0,1.044v22.53a1.043,1.043,0,0,0,1.467.953L26.85,13.262A1.043,1.043,0,0,0,26.85,11.356Z" transform="matrix(-0.208, 0.978, -0.978, -0.208, 29.792, 136.891)"/><path class="a" d="M26.85,11.356,1.467.091A1.043,1.043,0,0,0,0,1.044v22.53a1.043,1.043,0,0,0,1.467.953L26.85,13.262A1.043,1.043,0,0,0,26.85,11.356Z" transform="matrix(-0.208, 0.978, -0.978, -0.208, 136.668, 8.308)"/><path class="a" d="M32.523,15.767,3.63.127A1.043,1.043,0,0,0,2.093.962L0,27.534A1.043,1.043,0,0,0,1.39,28.6L32.373,17.668A1.043,1.043,0,0,0,32.523,15.767Z" transform="matrix(-0.208, 0.978, -0.978, -0.208, 90.852, 131.779)"/><path class="a" d="M1.464.99,0,28.723a1.043,1.043,0,0,0,1.414,1.029l21.046-8.041A1.043,1.043,0,0,0,22.828,20L3.245.309A1.043,1.043,0,0,0,1.464.99Z" transform="matrix(-0.208, 0.978, -0.978, -0.208, 45.524, 26.975)"/><path class="a" d="M15.771.458.181,23.441a1.043,1.043,0,0,0,.678,1.612l22.172,4a1.043,1.043,0,0,0,1.2-1.274L17.648.8A1.043,1.043,0,0,0,15.771.458Z" transform="matrix(-0.208, 0.978, -0.978, -0.208, 196.467, 233.502)"/><path class="a" d="M13.388.525.139,23.637a1.043,1.043,0,0,0,.8,1.556l21.5,2.219a1.043,1.043,0,0,0,1.1-1.361L15.285.72A1.043,1.043,0,0,0,13.388.525Z" transform="matrix(-0.208, 0.978, -0.978, -0.208, 126.263, 211.1)"/><path class="a" d="M17.8.236.385,14.4A1.043,1.043,0,0,0,.57,16.14L16.806,24.4a1.043,1.043,0,0,0,1.514-.875L19.5,1.1A1.043,1.043,0,0,0,17.8.236Z" transform="matrix(-0.208, 0.978, -0.978, -0.208, 90.868, 75.462)"/><path class="a" d="M4,17.772,14.457,5.4a1.043,1.043,0,0,0-.5-1.675L1.336.043A1.043,1.043,0,0,0,.01,1.183L2.171,17.238A1.043,1.043,0,0,0,4,17.772Z" transform="matrix(-0.208, 0.978, -0.978, -0.208, 142.202, 240.276)"/><path class="a" d="M1.269,16.117,17.1,12.661a1.043,1.043,0,0,0,.619-1.635L9.944.426A1.043,1.043,0,0,0,8.2.524L.141,14.579A1.043,1.043,0,0,0,1.269,16.117Z" transform="matrix(-0.208, 0.978, -0.978, -0.208, 175.085, 189.566)"/><path class="a" d="M1.269,16.117,17.1,12.661a1.043,1.043,0,0,0,.619-1.635L9.944.426A1.043,1.043,0,0,0,8.2.524L.141,14.579A1.043,1.043,0,0,0,1.269,16.117Z" transform="matrix(-0.208, 0.978, -0.978, -0.208, 132.28, 89.188)"/><path class="a" d="M.031,1.293l3.537,14.5a1.043,1.043,0,0,0,1.65.578L14.8,8.976a1.043,1.043,0,0,0-.14-1.743L1.541.129A1.043,1.043,0,0,0,.031,1.293Z" transform="matrix(-0.208, 0.978, -0.978, -0.208, 74.36, 3.449)"/><path class="a" d="M1.469,14.959,13.941,9.424A1.043,1.043,0,0,0,14.217,7.7L6.009.27A1.043,1.043,0,0,0,4.318.718L.054,13.679A1.043,1.043,0,0,0,1.469,14.959Z" transform="matrix(-0.208, 0.978, -0.978, -0.208, 94.005, 36.445)"/></g><g transform="translate(95.073 2346.849) rotate(-3)"><rect class="b" width="1.246" height="6.119" transform="matrix(0.574, 0.819, -0.819, 0.574, 82.473, 50.206)"/><rect class="b" width="1.246" height="6.49" transform="matrix(-0.174, 0.985, -0.985, -0.174, 108.807, 64.435)"/><rect class="b" width="1.246" height="4.509" transform="translate(99.245 103.726) rotate(76.759)"/><rect class="b" width="6.101" height="1.246" transform="matrix(0.887, 0.462, -0.462, 0.887, 63.244, 96.397)"/><rect class="b" width="4.424" height="1.246" transform="matrix(0.835, 0.551, -0.551, 0.835, 57.355, 130.139)"/><rect class="b" width="6.068" height="1.246" transform="translate(31.599 161.592) rotate(72.075)"/><rect class="b" width="1.246" height="4.835" transform="translate(46.202 53.515) rotate(64.244)"/><rect class="b" width="5.875" height="1.246" transform="translate(144.222 36.941) rotate(24.67)"/><rect class="b" width="6.799" height="1.246" transform="translate(5.184 76.652) rotate(15.716)"/><rect class="b" width="5.804" height="1.246" transform="matrix(0.856, 0.518, -0.518, 0.856, 146.369, 200.925)"/><rect class="b" width="1.246" height="5.093" transform="translate(163.754 162.197) rotate(60.389)"/><rect class="b" width="1.246" height="4.799" transform="translate(64.335 30.613) rotate(50.426)"/><rect class="b" width="1.246" height="6.113" transform="matrix(-0.086, 0.996, -0.996, -0.086, 98.116, 0.524)"/><rect class="b" width="1.246" height="7.057" transform="translate(12.384 2.927) rotate(67.529)"/><rect class="b" width="6.468" height="1.246" transform="translate(41.35 -1.643) rotate(84.217)"/><rect class="b" width="1.246" height="6.005" transform="translate(92.128 184.864) rotate(32.519)"/><rect class="b" width="5.574" height="1.246" transform="translate(109.408 130.224) rotate(77.267)"/><rect class="b" width="1.246" height="5.796" transform="translate(163.603 252.836) rotate(45.704)"/><rect class="b" width="1.246" height="5.412" transform="matrix(-0.174, 0.985, -0.985, -0.174, 12.362, 39.879)"/><rect class="b" width="4.784" height="1.246" transform="translate(113.05 241.192) rotate(81.881)"/><rect class="b" width="1.246" height="6.635" transform="translate(188.772 209.268) rotate(79.718)"/><rect class="b" width="7.205" height="1.246" transform="translate(1.136 157.546) rotate(65.712)"/><rect class="b" width="5.918" height="1.246" transform="translate(190.016 264.883) rotate(20.542)"/><rect class="b" width="5.006" height="1.246" transform="matrix(-0.174, 0.985, -0.985, -0.174, 140.831, 136.174)"/><rect class="b" width="6.134" height="1.246" transform="matrix(-0.053, 0.999, -0.999, -0.053, 33.025, 197.796)"/><rect class="b" width="1.246" height="7.334" transform="translate(55.335 168.735) rotate(70.124)"/><rect class="b" width="6.009" height="1.246" transform="translate(143.86 73.389) rotate(64.16)"/><rect class="b" width="1.246" height="6.45" transform="matrix(-0.174, 0.985, -0.985, -0.174, 48.022, 233.834)"/><rect class="b" width="6.734" height="1.246" transform="translate(74.424 233.409) rotate(32.446)"/><rect class="b" width="6.718" height="1.246" transform="matrix(0.876, 0.482, -0.482, 0.876, 120.022, 193.882)"/><rect class="b" width="1.246" height="6.837" transform="translate(93.253 161.799) rotate(70.541)"/><rect class="b" width="1.246" height="8.04" transform="translate(23.629 116.881) rotate(85.379)"/></g><g transform="matrix(-0.454, -0.891, 0.891, -0.454, 189.724, 2325.737)"><path class="a" d="M39.778.038.772,10.563a1.043,1.043,0,0,0-.539,1.664l20.641,25.46a1.043,1.043,0,0,0,1.739-.183L40.979,1.519A1.043,1.043,0,0,0,39.778.038Z" transform="matrix(-0.208, 0.978, -0.978, -0.208, 53.49, 79.418)"/><path class="a" d="M1.564,41.425,36.6,21.312a1.043,1.043,0,0,0,.1-1.746L10.255.2A1.043,1.043,0,0,0,8.62.822L.025,40.3A1.043,1.043,0,0,0,1.564,41.425Z" transform="matrix(-0.208, 0.978, -0.978, -0.208, 86.135, 197.475)"/><path class="a" d="M0,1.084,1.227,33.633a1.043,1.043,0,0,0,1.5.9L26.46,22.91a1.043,1.043,0,0,0,.212-1.736L1.713.246A1.043,1.043,0,0,0,0,1.084Z" transform="matrix(-0.208, 0.978, -0.978, -0.208, 143.512, 162.32)"/><path class="a" d="M26.85,11.356,1.467.091A1.043,1.043,0,0,0,0,1.044v22.53a1.043,1.043,0,0,0,1.467.953L26.85,13.262A1.043,1.043,0,0,0,26.85,11.356Z" transform="matrix(-0.208, 0.978, -0.978, -0.208, 29.792, 136.891)"/><path class="a" d="M32.523,15.767,3.63.127A1.043,1.043,0,0,0,2.093.962L0,27.534A1.043,1.043,0,0,0,1.39,28.6L32.373,17.668A1.043,1.043,0,0,0,32.523,15.767Z" transform="matrix(-0.208, 0.978, -0.978, -0.208, 96.249, 127.795)"/><path class="a" d="M32.523,15.767,3.63.127A1.043,1.043,0,0,0,2.093.962L0,27.534A1.043,1.043,0,0,0,1.39,28.6L32.373,17.668A1.043,1.043,0,0,0,32.523,15.767Z" transform="translate(38.923 -76.731) rotate(19)"/><path class="a" d="M1.464.99,0,28.723a1.043,1.043,0,0,0,1.414,1.029l21.046-8.041A1.043,1.043,0,0,0,22.828,20L3.245.309A1.043,1.043,0,0,0,1.464.99Z" transform="matrix(-0.208, 0.978, -0.978, -0.208, 45.524, 26.975)"/><path class="a" d="M15.771.458.181,23.441a1.043,1.043,0,0,0,.678,1.612l22.172,4a1.043,1.043,0,0,0,1.2-1.274L17.648.8A1.043,1.043,0,0,0,15.771.458Z" transform="matrix(-0.208, 0.978, -0.978, -0.208, 196.467, 233.502)"/><path class="a" d="M13.388.525.139,23.637a1.043,1.043,0,0,0,.8,1.556l21.5,2.219a1.043,1.043,0,0,0,1.1-1.361L15.285.72A1.043,1.043,0,0,0,13.388.525Z" transform="matrix(-0.208, 0.978, -0.978, -0.208, 126.263, 211.1)"/><path class="a" d="M17.8.236.385,14.4A1.043,1.043,0,0,0,.57,16.14L16.806,24.4a1.043,1.043,0,0,0,1.514-.875L19.5,1.1A1.043,1.043,0,0,0,17.8.236Z" transform="matrix(-0.208, 0.978, -0.978, -0.208, 99.375, 74.185)"/><path class="a" d="M17.8.236.385,14.4A1.043,1.043,0,0,0,.57,16.14L16.806,24.4a1.043,1.043,0,0,0,1.514-.875L19.5,1.1A1.043,1.043,0,0,0,17.8.236Z" transform="translate(39.181 -3.331) rotate(-135)"/><path class="a" d="M4,17.772,14.457,5.4a1.043,1.043,0,0,0-.5-1.675L1.336.043A1.043,1.043,0,0,0,.01,1.183L2.171,17.238A1.043,1.043,0,0,0,4,17.772Z" transform="matrix(-0.208, 0.978, -0.978, -0.208, 142.202, 240.276)"/><path class="a" d="M1.269,16.117,17.1,12.661a1.043,1.043,0,0,0,.619-1.635L9.944.426A1.043,1.043,0,0,0,8.2.524L.141,14.579A1.043,1.043,0,0,0,1.269,16.117Z" transform="matrix(-0.208, 0.978, -0.978, -0.208, 175.085, 189.566)"/><path class="a" d="M.031,1.293l3.537,14.5a1.043,1.043,0,0,0,1.65.578L14.8,8.976a1.043,1.043,0,0,0-.14-1.743L1.541.129A1.043,1.043,0,0,0,.031,1.293Z" transform="matrix(-0.208, 0.978, -0.978, -0.208, 74.36, 3.449)"/><path class="a" d="M1.469,14.959,13.941,9.424A1.043,1.043,0,0,0,14.217,7.7L6.009.27A1.043,1.043,0,0,0,4.318.718L.054,13.679A1.043,1.043,0,0,0,1.469,14.959Z" transform="matrix(-0.208, 0.978, -0.978, -0.208, 107.455, 32.075)"/></g><g transform="matrix(-0.454, -0.891, 0.891, -0.454, 197.098, 2328.675)"><rect class="b" width="1.246" height="6.119" transform="matrix(0.574, 0.819, -0.819, 0.574, 82.473, 50.206)"/><rect class="b" width="1.246" height="6.49" transform="matrix(-0.174, 0.985, -0.985, -0.174, 108.807, 64.435)"/><rect class="b" width="1.246" height="4.509" transform="translate(101.935 102.852) rotate(76.759)"/><rect class="b" width="6.101" height="1.246" transform="matrix(0.887, 0.462, -0.462, 0.887, 63.244, 96.397)"/><rect class="b" width="4.424" height="1.246" transform="matrix(0.835, 0.551, -0.551, 0.835, 57.355, 130.139)"/><rect class="b" width="6.068" height="1.246" transform="translate(40.164 151.026) rotate(72.075)"/><rect class="b" width="1.246" height="4.835" transform="translate(46.202 53.515) rotate(64.244)"/><rect class="b" width="5.875" height="1.246" transform="translate(23.606 64.666) rotate(24.67)"/><rect class="b" width="6.799" height="1.246" transform="translate(-20.624 44.575) rotate(71)"/><rect class="b" width="5.804" height="1.246" transform="matrix(0.856, 0.518, -0.518, 0.856, 146.369, 200.925)"/><rect class="b" width="1.246" height="5.093" transform="translate(163.754 162.197) rotate(60.389)"/><rect class="b" width="1.246" height="4.799" transform="translate(64.335 30.613) rotate(50.426)"/><rect class="b" width="1.246" height="6.113" transform="matrix(-0.086, 0.996, -0.996, -0.086, 98.116, 0.524)"/><rect class="b" width="1.246" height="7.057" transform="translate(12.384 2.927) rotate(67.529)"/><rect class="b" width="6.468" height="1.246" transform="translate(50.97 5.871) rotate(84.217)"/><rect class="b" width="1.246" height="6.005" transform="translate(92.128 184.864) rotate(32.519)"/><rect class="b" width="5.574" height="1.246" transform="translate(114.805 126.24) rotate(77.267)"/><rect class="b" width="1.246" height="5.796" transform="translate(163.603 252.836) rotate(45.704)"/><rect class="b" width="1.246" height="5.412" transform="matrix(-0.174, 0.985, -0.985, -0.174, 12.362, 39.879)"/><rect class="b" width="4.784" height="1.246" transform="translate(113.05 241.192) rotate(81.881)"/><rect class="b" width="1.246" height="6.635" transform="translate(188.772 209.268) rotate(79.718)"/><rect class="b" width="7.205" height="1.246" transform="translate(1.136 157.546) rotate(65.712)"/><rect class="b" width="5.918" height="1.246" transform="translate(190.016 264.883) rotate(20.542)"/><rect class="b" width="5.006" height="1.246" transform="matrix(-0.174, 0.985, -0.985, -0.174, 140.377, 137.065)"/><rect class="b" width="6.134" height="1.246" transform="matrix(-0.053, 0.999, -0.999, -0.053, 33.025, 197.796)"/><rect class="b" width="1.246" height="7.334" transform="translate(42.039 174.046) rotate(70.124)"/><rect class="b" width="6.009" height="1.246" transform="translate(59.207 160.078) rotate(64.16)"/><rect class="b" width="1.246" height="6.45" transform="matrix(-0.174, 0.985, -0.985, -0.174, 57.01, 234.305)"/><rect class="b" width="6.734" height="1.246" transform="translate(73.687 228.363) rotate(32.446)"/><rect class="b" width="6.718" height="1.246" transform="matrix(0.876, 0.482, -0.482, 0.876, 120.022, 193.882)"/><rect class="b" width="1.246" height="6.837" transform="translate(93.253 161.799) rotate(70.541)"/><rect class="b" width="1.246" height="8.04" transform="translate(23.629 116.881) rotate(85.379)"/><rect class="b" width="1.246" height="4.835" transform="matrix(0.435, 0.901, -0.901, 0.435, 78.202, -37.923)"/><rect class="b" width="1.246" height="7.057" transform="translate(63.685 -97.757) rotate(67.529)"/><rect class="b" width="1.246" height="5.412" transform="matrix(-0.174, 0.985, -0.985, -0.174, 26.39, -40.515)"/></g></g></svg>