<svg xmlns="http://www.w3.org/2000/svg" width="98.306" height="112.54" viewBox="0 0 98.306 112.54"><defs><style>.a{fill:#b3ffe2;}.b{fill:#2bd0a2;}</style></defs><g transform="translate(0 5.625)"><path class="a" d="M170.2,134.647c16.968-.491,10.358,25.088,22.986,47.085,17.747,30.913,1.087,59.823-30.12,59.823-25.981,0-48.89-29.6-25.255-62.655C159.592,148.425,155.367,135.077,170.2,134.647Z" transform="translate(-127.924 -134.64)"/></g><g transform="translate(33.266 55.526)"><ellipse class="b" cx="17.253" cy="17.253" rx="17.253" ry="17.253"/></g><g transform="translate(13.855 0)"><path class="b" d="M223.913,142.67c-7.767-20.969-19.306-22.526-28.235-18.63a7.793,7.793,0,0,1,.882-.139c-5.528,1.619-7.755,6.367-11.5,14.368a170.588,170.588,0,0,1-16.923,29.447c-10.62,14.855-12.846,30.89-6.107,43.991a35.981,35.981,0,0,0,20.153,17.379c-.1-.012-.177-.019-.21-.021,33.86,12.721,55.92-4.453,59.621-22.485C246.625,182.049,232.5,165.855,223.913,142.67ZM162.8,211.308c-6.585-12.8-4.383-28.507,6.041-43.088a171.376,171.376,0,0,0,17-29.583c4.583-9.781,6.675-14.245,15.046-14.488.155,0,.308-.006.459-.006a11.7,11.7,0,0,1,3.428.475c9.509,4.9,8.366,28.8,17.33,46.182,13.442,26.07,4.4,49.739-14.732,57.307a43.771,43.771,0,0,1-13.631,2.081A35.117,35.117,0,0,1,162.8,211.308Z" transform="translate(-158.197 -122.351)"/></g></svg>