<svg xmlns="http://www.w3.org/2000/svg" width="107.89" height="98.722" viewBox="0 0 107.89 98.722"><defs><style>.a{fill:#b3ffe2;}.b{fill:#2bd0a2;}.c,.d{fill:none;stroke:#2bd0a2;stroke-miterlimit:10;}.d{stroke-width:2.5px;}</style></defs><g transform="translate(0 0.759)"><g transform="translate(0 28.739)"><path class="a" d="M218.769,191.531c0-3.44-21.807-6.23-48.707-6.23-26.817,0-48.586,2.772-48.72,6.2h0c-.013.23-1.117,23.212,13.216,38.366,8.393,8.873,20.338,13.372,35.5,13.372,15.053,0,26.935-4.475,35.315-13.3,13.6-14.321,13.431-35.692,13.362-38.191A.856.856,0,0,0,218.769,191.531Z" transform="translate(-121.316 -185.301)"/></g><g transform="translate(10.437 35.149)"><path class="b" d="M241.572,205.535c0-3.44-21.807-6.23-48.707-6.23-26.817,0-48.586,2.772-48.72,6.2h0c-.013.23-1.117,23.211,13.216,38.366a39.662,39.662,0,0,0,12.54,8.9v8.3a1.05,1.05,0,0,0,1.05,1.05h43.468a1.05,1.05,0,0,0,1.05-1.05v-8.178a39.7,39.7,0,0,0,12.711-8.952c13.6-14.321,13.431-35.691,13.362-38.191A.838.838,0,0,0,241.572,205.535ZM239.99,213.5c-7.019,3.564-24.7,5.963-45.143,6.119-21.217.152-40.017-2.192-49.19-6.146a61.481,61.481,0,0,1-.394-6.276c1.517.994,5.085,2.222,13.48,3.308a280.43,280.43,0,0,0,34.12,1.829,279.845,279.845,0,0,0,34.094-1.829c8.366-1.084,11.93-2.31,13.448-3.3A61.676,61.676,0,0,1,239.99,213.5Zm-.791,5.1c-.219,1.12-.478,2.283-.782,3.474-7.856,3.17-24.51,5.266-43.57,5.411-20.106.146-38.038-1.954-47.668-5.539-.3-1.2-.553-2.36-.767-3.483,10,3.514,26.853,5.547,46.323,5.547q1.068,0,2.146-.008C210.145,223.887,229,222.383,239.2,218.6Zm-11.851,24.552c-8.155,8.59-19.758,12.945-34.485,12.945-14.835,0-26.5-4.376-34.667-13.008a44.605,44.605,0,0,1-9.483-16.014c10.176,3.053,25.975,4.8,44.021,4.8q1.068,0,2.146-.008c14.153-.108,31.392-1.408,41.959-4.612A44.747,44.747,0,0,1,227.349,243.152Z" transform="translate(-144.119 -199.305)"/></g><g transform="translate(34.977 0)"><path class="c" d="M258.1,136.166" transform="translate(-230.473 -129.915)"/><path class="d" d="M200.055,146.037s2.319-2.952,2.319-5.9c0-4.746-4.638-7.107-4.638-11.764,0-2.825,2.319-5.861,2.319-5.861" transform="translate(-197.736 -122.509)"/><path class="d" d="M210.844,146.037s2.32-2.952,2.32-5.9c0-4.746-4.639-7.107-4.639-11.764,0-2.825,2.319-5.861,2.319-5.861" transform="translate(-203.587 -122.509)"/><g transform="translate(19.218)"><path class="d" d="M242.045,146.037s2.32-2.952,2.32-5.9c0-4.746-4.639-7.107-4.639-11.764,0-2.825,2.319-5.861,2.319-5.861" transform="translate(-239.726 -122.509)"/><path class="d" d="M252.835,146.037s2.32-2.952,2.32-5.9c0-4.746-4.638-7.107-4.638-11.764,0-2.825,2.319-5.861,2.319-5.861" transform="translate(-245.577 -122.509)"/></g><g transform="translate(38.82)"><path class="d" d="M284.871,146.037s2.32-2.952,2.32-5.9c0-4.746-4.639-7.107-4.639-11.764,0-2.825,2.319-5.861,2.319-5.861" transform="translate(-282.552 -122.509)"/><path class="d" d="M295.66,146.037s2.32-2.952,2.32-5.9c0-4.746-4.639-7.107-4.639-11.764,0-2.825,2.319-5.861,2.319-5.861" transform="translate(-288.403 -122.509)"/></g></g></g></svg>