<svg xmlns="http://www.w3.org/2000/svg" width="22" height="22" viewBox="0 0 22 22"><defs><style>.a{fill:#fff;fill-rule:evenodd;}</style></defs><path class="a" d="M11,1.956a33.728,33.728,0,0,1,4.4.122,5.669,5.669,0,0,1,2.078.367,4.292,4.292,0,0,1,2.078,2.078A5.669,5.669,0,0,1,19.922,6.6c0,1.1.122,1.467.122,4.4a33.728,33.728,0,0,1-.122,4.4,5.669,5.669,0,0,1-.367,2.078,4.292,4.292,0,0,1-2.078,2.078,5.669,5.669,0,0,1-2.078.367c-1.1,0-1.467.122-4.4.122a33.728,33.728,0,0,1-4.4-.122,5.669,5.669,0,0,1-2.078-.367,4.292,4.292,0,0,1-2.078-2.078A5.669,5.669,0,0,1,2.078,15.4c0-1.1-.122-1.467-.122-4.4a33.728,33.728,0,0,1,.122-4.4,5.669,5.669,0,0,1,.367-2.078A4.39,4.39,0,0,1,3.3,3.3a2.066,2.066,0,0,1,1.222-.856A5.669,5.669,0,0,1,6.6,2.078,33.728,33.728,0,0,1,11,1.956M11,0A36.113,36.113,0,0,0,6.478.122,7.546,7.546,0,0,0,3.789.611,4.785,4.785,0,0,0,1.833,1.833,4.785,4.785,0,0,0,.611,3.789,5.569,5.569,0,0,0,.122,6.478,36.113,36.113,0,0,0,0,11a36.113,36.113,0,0,0,.122,4.522,7.546,7.546,0,0,0,.489,2.689,4.785,4.785,0,0,0,1.222,1.956,4.785,4.785,0,0,0,1.956,1.222,7.545,7.545,0,0,0,2.689.489A36.113,36.113,0,0,0,11,22a36.113,36.113,0,0,0,4.522-.122,7.546,7.546,0,0,0,2.689-.489,5.128,5.128,0,0,0,3.178-3.178,7.545,7.545,0,0,0,.489-2.689C21.878,14.3,22,13.933,22,11a36.113,36.113,0,0,0-.122-4.522,7.546,7.546,0,0,0-.489-2.689,4.785,4.785,0,0,0-1.222-1.956A4.785,4.785,0,0,0,18.211.611,7.546,7.546,0,0,0,15.522.122,36.113,36.113,0,0,0,11,0m0,5.378A5.532,5.532,0,0,0,5.378,11,5.622,5.622,0,1,0,11,5.378m0,9.289A3.6,3.6,0,0,1,7.333,11,3.6,3.6,0,0,1,11,7.333,3.6,3.6,0,0,1,14.667,11,3.6,3.6,0,0,1,11,14.667M16.867,3.789a1.344,1.344,0,1,0,1.344,1.344,1.356,1.356,0,0,0-1.344-1.344"/></svg>