<svg xmlns="http://www.w3.org/2000/svg" width="22" height="22" viewBox="0 0 22 22"><defs><style>.a{fill:#fff;}</style></defs><path class="a" d="M13,2A11,11,0,1,0,24,13,11.007,11.007,0,0,0,13,2Zm0,.957A10.043,10.043,0,1,1,2.957,13,10.036,10.036,0,0,1,13,2.957ZM13.273,6.3C9.616,6.3,7.261,8.9,7.261,11.4c0,2.44,1.351,3.013,1.634,3.177s.483.049.546-.176l.17-.682a.37.37,0,0,0-.078-.37,2.3,2.3,0,0,1-.609-1.71A3.994,3.994,0,0,1,13.1,7.707c2.642,0,3.547,1.72,3.547,3.144,0,1.771-.848,4.417-2.639,4.417a1.325,1.325,0,0,1-1.432-1.278,1.419,1.419,0,0,1,.039-.353c.014-.067.466-1.507.61-2.02.323-1.15.047-2.107-1.011-2.107-1.491,0-2.027,2.1-1.373,3.44L9.778,17.306A11.265,11.265,0,0,0,9.6,18.44a12.864,12.864,0,0,0,.079,1.887c.023.207.023.305.118.324s.254-.141.384-.333a12.869,12.869,0,0,0,.941-1.519,5.174,5.174,0,0,0,.444-1.24c.208-.785.488-1.889.488-1.889a2.445,2.445,0,0,0,2.161,1.022c2.243,0,4.523-1.953,4.523-5.6C18.739,8.13,16.175,6.3,13.273,6.3Z" transform="translate(-2 -2)"/></svg>