<svg xmlns="http://www.w3.org/2000/svg" width="22" height="17.875" viewBox="0 0 22 17.875"><defs><style>.a{fill:#fff;}</style></defs><path class="a" d="M22,4.109a8.328,8.328,0,0,1-2.567.734,4.878,4.878,0,0,0,2.016-2.478,8.364,8.364,0,0,1-2.84,1.1A4.8,4.8,0,0,0,15.218,2a4.5,4.5,0,0,0-4.494,4.49,3.391,3.391,0,0,0,.093,1.01,12.54,12.54,0,0,1-9.26-4.676A3.946,3.946,0,0,0,.917,5.115a4.6,4.6,0,0,0,2.016,3.76A6.519,6.519,0,0,1,.917,8.324v.093a4.449,4.449,0,0,0,3.574,4.4A4.707,4.707,0,0,1,3.3,13a2.513,2.513,0,0,1-.827-.093,4.351,4.351,0,0,0,4.218,3.119A9.165,9.165,0,0,1,1.1,17.949a4.561,4.561,0,0,1-1.1-.09,12.843,12.843,0,0,0,6.875,2.016A12.716,12.716,0,0,0,19.708,7.042V6.49A9.412,9.412,0,0,0,22,4.109" transform="translate(0 -2)"/></svg>