<svg xmlns="http://www.w3.org/2000/svg" width="168.051" height="29.996" viewBox="0 0 168.051 29.996"><defs><style>.a{fill:#fff;}</style></defs><g transform="translate(0)"><path class="a" d="M619.74,168.109a2.931,2.931,0,0,0-4.105.06,2.779,2.779,0,0,0-.839,2.128,2.74,2.74,0,0,0,.9,2.128,2.924,2.924,0,0,0,2.068.839h.03a2.7,2.7,0,0,0,2.008-.869,2.913,2.913,0,0,0,.839-2.158A3.223,3.223,0,0,0,619.74,168.109Z" transform="translate(-452.588 -143.267)"/><path class="a" d="M231.326,124.558a10.871,10.871,0,0,0-1.438-5.454,10.124,10.124,0,0,0-3.776-3.686,10.645,10.645,0,0,0-5.244-1.319,11.2,11.2,0,0,0-5.484,1.378,9.835,9.835,0,0,0-3.806,3.866,11.223,11.223,0,0,0-1.378,5.574,10.988,10.988,0,0,0,1.438,5.6,9.866,9.866,0,0,0,4.045,3.866,12.421,12.421,0,0,0,5.963,1.378,12.728,12.728,0,0,0,4.765-.869,9.2,9.2,0,0,0,3.566-2.577l.15-.15-2.367-2.817-.21.21a7.489,7.489,0,0,1-5.813,2.427,8.018,8.018,0,0,1-4.345-1.139,6.021,6.021,0,0,1-2.427-2.937l16.392-3.206Zm-17.021.27v-.09a7.567,7.567,0,0,1,.839-3.656,5.821,5.821,0,0,1,2.307-2.427,6.7,6.7,0,0,1,3.386-.869,6.358,6.358,0,0,1,4.075,1.348,6.158,6.158,0,0,1,2.128,3.3Z" transform="translate(-169.236 -106.009)"/><path class="a" d="M310.66,112.841a4.2,4.2,0,0,1-1.738.36,2.832,2.832,0,0,1-2.217-.809,3.615,3.615,0,0,1-.749-2.427V87.1H301.7v23.194a6.614,6.614,0,0,0,1.708,4.855,6.461,6.461,0,0,0,4.855,1.738,7.9,7.9,0,0,0,2.787-.479l.18-.06-.24-3.656Z" transform="translate(-233.317 -87.1)"/><path class="a" d="M357.86,112.841a4.2,4.2,0,0,1-1.738.36,2.832,2.832,0,0,1-2.217-.809,3.615,3.615,0,0,1-.749-2.427V87.1H348.9v23.194a6.614,6.614,0,0,0,1.708,4.855,6.461,6.461,0,0,0,4.855,1.738,7.9,7.9,0,0,0,2.787-.479l.18-.06-.24-3.656Z" transform="translate(-266.373 -87.1)"/><path class="a" d="M405.051,115.578a11.406,11.406,0,0,0-5.664-1.378,11.938,11.938,0,0,0-5.694,1.378,10.216,10.216,0,0,0-3.956,3.866,11.635,11.635,0,0,0,0,11.207,10.216,10.216,0,0,0,3.956,3.866,11.62,11.62,0,0,0,5.694,1.408,11.422,11.422,0,0,0,5.664-1.408,10.141,10.141,0,0,0,3.926-3.866,11.635,11.635,0,0,0,0-11.207A9.749,9.749,0,0,0,405.051,115.578Zm.18,13.125a6.183,6.183,0,0,1-2.4,2.487,6.72,6.72,0,0,1-3.446.9,6.567,6.567,0,0,1-3.446-.9,6.67,6.67,0,0,1-2.427-2.487,7.461,7.461,0,0,1-.9-3.686,7.381,7.381,0,0,1,.9-3.686,6.515,6.515,0,0,1,2.4-2.457,7.006,7.006,0,0,1,3.446-.869,6.843,6.843,0,0,1,3.446.869,6.106,6.106,0,0,1,2.4,2.457,7.783,7.783,0,0,1,.869,3.686A7.055,7.055,0,0,1,405.231,128.7Z" transform="translate(-293.966 -106.079)"/><path class="a" d="M512.075,114.04c0,2.847-.03,5.154-.03,7.252,0,1.8-.03,3.446-.03,5.154,0,3.176-3.236,5.154-5.574,5.154-2.727,0-5.664-1.948-5.664-5.094,0-1.468-.03-2.487-.03-3.716-.03-1.648-.06-3.926-.06-8.69v-.24h-4.165v.24c0,4.765-.03,7.042-.06,8.75-.03,1.2-.03,2.217-.03,3.686,0,3.146-2.937,5.094-5.664,5.094-2.337,0-5.574-1.948-5.574-5.154,0-1.678,0-3.3-.03-5.034v-.15c-.03-2.1-.03-4.405-.03-7.252v-.24H481v.24c0,2.847.03,5.184.03,7.282v.12c0,1.738.03,3.326.03,5,0,5.484,5.124,9.29,9.739,9.29a10.266,10.266,0,0,0,7.821-3.686,10.266,10.266,0,0,0,7.821,3.686c4.615,0,9.739-3.836,9.739-9.29,0-1.708,0-3.356.03-5.124.03-2.128.03-4.435.03-7.282v-.24h-4.165Z" transform="translate(-358.888 -105.799)"/><path class="a" d="M108.71,128.094c0-1.738-.03-3.326-.03-5,0-5.484-5.124-9.29-9.739-9.29a10.266,10.266,0,0,0-7.821,3.686A10.266,10.266,0,0,0,83.3,113.8c-4.615,0-9.739,3.836-9.739,9.29,0,1.708,0,3.356-.03,5.124-.03,2.128-.03,4.435-.03,7.282v.24h4.165v-.24c0-2.847.03-5.154.03-7.252,0-1.8.03-3.446.03-5.154,0-3.176,3.236-5.154,5.574-5.154,2.727,0,5.664,1.948,5.664,5.094,0,1.438.03,2.457.03,3.716.03,1.768.06,3.956.06,8.69v.24h4.165v-.24c0-4.7.03-6.922.06-8.69.03-1.229.03-2.277.03-3.716,0-3.146,2.937-5.094,5.664-5.094,2.337,0,5.574,1.948,5.574,5.154,0,1.678,0,3.3.03,5.034v.15c.03,2.1.03,4.405.03,7.252v.24h4.165v-.24c0-2.847-.03-5.184-.03-7.282Z" transform="translate(-73.5 -105.799)"/></g></svg>