<svg xmlns="http://www.w3.org/2000/svg" width="133.56" height="28.344" viewBox="0 0 133.56 28.344"><defs><style>.a{fill:#aaad00;}.b{fill:#fff;}.c{fill:#5f6062;}</style></defs><path class="a" d="M25.277.756H3.067A3.051,3.051,0,0,0,0,3.823V26.033A3.082,3.082,0,0,0,3.067,29.1H28.344V3.823A2.991,2.991,0,0,0,25.277.756Z" transform="translate(0 -0.756)"/><path class="b" d="M14.929,25.421a9.69,9.69,0,0,0,9.745-9.7,6.141,6.141,0,0,0-.4-2.523,6.231,6.231,0,0,1-6.925,6.084,6.009,6.009,0,0,1-5.194-6.777,5.744,5.744,0,0,1,6.381-5.1c3.908.544,4.749,3.562,3.562,4.947a2,2,0,0,1-3.611-1.187,1.937,1.937,0,0,1,.791-1.583,3.567,3.567,0,0,0-4.353,3.067,3.837,3.837,0,0,0,3.265,4.3,4.762,4.762,0,0,0,5.491-4.8c0-2.919-3.116-6.233-8.706-6.233a9.745,9.745,0,0,0-.049,19.49Z" transform="translate(-0.781 -1.529)"/><g transform="translate(32.747 0.742)"><path class="c" d="M144.3,10.932a9.241,9.241,0,0,0-9.4,9.4,9.4,9.4,0,0,0,18.8,0,9.271,9.271,0,0,0-9.4-9.4m0,3.265a6.135,6.135,0,1,1-6.035,6.134A6.08,6.08,0,0,1,144.3,14.2" transform="translate(-52.888 -3.017)"/><path class="c" d="M93.048,26.473a6.135,6.135,0,1,1,6.035-6.134,6.112,6.112,0,0,1-6.035,6.134m5.936-14.988v2.028h-.148A8.122,8.122,0,0,0,92.9,10.99a9.241,9.241,0,0,0-9.4,9.4,9.3,9.3,0,0,0,9.4,9.4,8.317,8.317,0,0,0,5.936-2.523h.148v1.979h3.364V11.485Z" transform="translate(-45.214 -3.026)"/><path class="c" d="M118.642,25.075a6.135,6.135,0,1,1,6.035-6.134,6.112,6.112,0,0,1-6.035,6.134m5.985-23.447V12.115h-.148a8.122,8.122,0,0,0-5.936-2.523,9.241,9.241,0,0,0-9.4,9.4,9.3,9.3,0,0,0,9.4,9.4,8.317,8.317,0,0,0,5.936-2.523h.148v1.979h3.413V1.628Z" transform="translate(-49.042 -1.628)"/><path class="c" d="M77.473,24.544a5.936,5.936,0,0,1-4.4,1.979,6.134,6.134,0,1,1,4.4-10.339l1.632-3.067a9.435,9.435,0,0,0-6.035-2.127,9.241,9.241,0,0,0-9.4,9.4,9.3,9.3,0,0,0,9.4,9.4,9.435,9.435,0,0,0,6.035-2.127Z" transform="translate(-42.253 -3.026)"/><path class="c" d="M47.893,10.932a9.241,9.241,0,0,0-9.4,9.4,9.4,9.4,0,1,0,18.8,0,9.211,9.211,0,0,0-9.4-9.4m0,3.265a6.135,6.135,0,1,1-6.035,6.134A6.145,6.145,0,0,1,47.893,14.2" transform="translate(-38.494 -3.017)"/></g></svg>