<svg xmlns="http://www.w3.org/2000/svg" width="113.727" height="113.608" viewBox="0 0 113.727 113.608"><defs><style>.a{fill:#b3ffe2;}.b{fill:#2bd0a2;}</style></defs><path class="a" d="M218.92,225.629c0-3.23-16.314-5.031-36.438-5.031s-36.438,1.8-36.438,5.031a.956.956,0,0,0,.024.152h-.024v54a12.941,12.941,0,0,0,12.941,12.941H205.98a12.941,12.941,0,0,0,12.941-12.941v-54H218.9A.954.954,0,0,0,218.92,225.629Z" transform="translate(-143.221 -179.118)"/><path class="b" d="M242.192,191.521a1.835,1.835,0,0,0-2.511-.66l-11.391,6.65v-5.924h0c-.019-1.124-1.344-2.538-11.184-3.575-6.513-.686-15.685-1.064-25.825-1.064s-19.313.378-25.826,1.064c-9.84,1.036-11.164,2.451-11.184,3.575h0v6.038l-11.632-6.791a1.836,1.836,0,1,0-1.851,3.17l13.483,7.872v42.8a13.528,13.528,0,0,0,13.512,13.512h47a13.528,13.528,0,0,0,13.512-13.512V201.763l13.242-7.73A1.836,1.836,0,0,0,242.192,191.521Zm-15.046,53.154a12.383,12.383,0,0,1-12.368,12.368h-47a12.382,12.382,0,0,1-12.368-12.368V193.148c1.3.748,4.082,1.62,10.026,2.4a210.517,210.517,0,0,0,25.84,1.4,210.52,210.52,0,0,0,25.839-1.4c5.944-.776,8.725-1.648,10.026-2.4Zm-10.174-50.267A209.4,209.4,0,0,1,191.28,195.8a209.408,209.408,0,0,1-25.692-1.388c-9.9-1.292-10.174-2.781-10.174-2.8s.116-1.4,10.16-2.462c6.475-.682,15.6-1.057,25.706-1.057s19.231.375,25.705,1.057c10.044,1.058,10.16,2.448,10.16,2.462S226.869,193.116,216.972,194.408Z" transform="translate(-139.876 -160.87)"/><path class="b" d="M242.192,191.521a1.835,1.835,0,0,0-2.511-.66l-11.391,6.65v-5.924h0c-.019-1.124-1.344-2.538-11.184-3.575-6.513-.686-15.685-1.064-25.825-1.064s-19.313.378-25.826,1.064c-9.84,1.036-11.164,2.451-11.184,3.575h0v6.038l-11.632-6.791a1.836,1.836,0,1,0-1.851,3.17l13.483,7.872v42.8a13.528,13.528,0,0,0,13.512,13.512h47a13.528,13.528,0,0,0,13.512-13.512V201.763l13.242-7.73A1.836,1.836,0,0,0,242.192,191.521Zm-15.046,53.154a12.383,12.383,0,0,1-12.368,12.368h-47a12.382,12.382,0,0,1-12.368-12.368V193.148c1.3.748,4.082,1.62,10.026,2.4a210.517,210.517,0,0,0,25.84,1.4,210.52,210.52,0,0,0,25.839-1.4c5.944-.776,8.725-1.648,10.026-2.4Zm-10.174-50.267A209.4,209.4,0,0,1,191.28,195.8a209.408,209.408,0,0,1-25.692-1.388c-9.9-1.292-10.174-2.781-10.174-2.8s.116-1.4,10.16-2.462c6.475-.682,15.6-1.057,25.706-1.057s19.231.375,25.705,1.057c10.044,1.058,10.16,2.448,10.16,2.462S226.869,193.116,216.972,194.408Z" transform="translate(-139.876 -160.87)"/><path class="b" d="M185.515,289.335H232.51a12.941,12.941,0,0,0,12.941-12.941V245.437c-7.162,9.016-20.848,15.127-33.969,10.251-11.389-4.232-25.249-3.97-38.907,1.66v19.046A12.941,12.941,0,0,0,185.515,289.335Z" transform="translate(-157.609 -192.588)"/><path class="b" d="M240.428,140.27c-.278-2.023-4.223-3.175-11.725-3.425a152.627,152.627,0,0,0-22.57,1.276l-.74-1.9c1.641-.775,2.654-1.908,2.481-3-.256-1.609-3-2.508-6.139-2.008s-5.467,2.209-5.21,3.818c.175,1.1,1.506,1.861,3.326,2.08l-.1,1.877a153.415,153.415,0,0,0-22.29,4.907c-7.154,2.27-10.64,4.446-10.362,6.468.384,2.792,8.033,4.054,17.919,4.054A151.207,151.207,0,0,0,205.015,153a131.318,131.318,0,0,0,25.23-5.817C235.086,145.456,240.784,142.852,240.428,140.27Zm-62.62,4.724a151.655,151.655,0,0,1,21.882-4.831l-.111,2.087a11.811,11.811,0,0,0,7.681-1.243l-.7-1.786a163.494,163.494,0,0,1,19.052-1.282c1.056,0,2.075.016,3.051.049,7.633.254,10.5,1.472,10.629,2.438h0a.585.585,0,0,1,0,.127c-.784,2.4-23.765,7.711-34.7,9.253-12.491,1.762-34.7,2.792-36.3.614a.677.677,0,0,1-.066-.2C168.1,149.25,170.529,147.3,177.808,144.994Z" transform="translate(-154.632 -130.573)"/><g transform="translate(71.188 0)"><g transform="translate(0 19.438)"><path class="b" d="M297.643,176.9a2.228,2.228,0,1,1,2.228-2.228A2.231,2.231,0,0,1,297.643,176.9Zm0-3.541a1.313,1.313,0,1,0,1.313,1.313A1.314,1.314,0,0,0,297.643,173.354Z" transform="translate(-295.414 -172.439)"/></g><g transform="translate(10.821 19.746)"><path class="b" d="M320.977,176.952a1.92,1.92,0,1,1,1.92-1.92A1.923,1.923,0,0,1,320.977,176.952Zm0-2.925a1,1,0,1,0,1,1A1.005,1.005,0,0,0,320.977,174.027Z" transform="translate(-319.057 -173.112)"/></g><g transform="translate(28.697 10.538)"><path class="b" d="M360.141,157.049a2.027,2.027,0,1,1,2.028-2.027A2.03,2.03,0,0,1,360.141,157.049Zm0-3.139a1.112,1.112,0,1,0,1.113,1.112A1.113,1.113,0,0,0,360.141,153.909Z" transform="translate(-358.113 -152.994)"/></g><g transform="translate(38.483 10.538)"><path class="b" d="M381.523,157.049a2.027,2.027,0,1,1,2.028-2.027A2.03,2.03,0,0,1,381.523,157.049Zm0-3.139a1.112,1.112,0,1,0,1.112,1.112A1.113,1.113,0,0,0,381.523,153.909Z" transform="translate(-379.495 -152.994)"/></g><g transform="translate(30.267)"><path class="b" d="M364.6,136.084a3.058,3.058,0,1,1,3.057-3.057A3.061,3.061,0,0,1,364.6,136.084Zm0-5.2a2.142,2.142,0,1,0,2.142,2.142A2.145,2.145,0,0,0,364.6,130.884Z" transform="translate(-361.543 -129.969)"/></g><g transform="translate(21.118 15.614)"><path class="b" d="M344.231,169.439a2.677,2.677,0,1,1,2.678-2.677A2.68,2.68,0,0,1,344.231,169.439Zm0-4.44a1.762,1.762,0,1,0,1.763,1.762A1.764,1.764,0,0,0,344.231,165Z" transform="translate(-341.554 -164.084)"/></g></g></svg>