<svg xmlns="http://www.w3.org/2000/svg" width="103.898" height="29.746" viewBox="0 0 103.898 29.746"><defs><style>.a{fill:#004996;}.a,.b{fill-rule:evenodd;}.b{fill:#e40520;}</style></defs><g transform="translate(-14.831 -4.246)"><g transform="translate(14.831 4.246)"><g transform="translate(0 24.596)"><path class="a" d="M10.35,39.584H23c.145,0,.145.073,0,.145a17.8,17.8,0,0,0-3.477,2.726,6.151,6.151,0,0,1-4.956,2.278H2.426c-.073,0-.073-.145,0-.145a20.289,20.289,0,0,0,3.332-2.8,6.343,6.343,0,0,1,4.592-2.205" transform="translate(-2.371 -39.584)"/><path class="a" d="M136.03,39.584h12.722c.073,0,.073.073,0,.145a15.677,15.677,0,0,0-3.477,2.726c-1.478,1.393-2.593,2.278-4.956,2.278H128.19c-.073,0-.073-.145,0-.145a20.29,20.29,0,0,0,3.332-2.8,6.164,6.164,0,0,1,4.507-2.205" transform="translate(-44.909 -39.584)"/></g><g transform="translate(1.169)"><path class="a" d="M41.759,39.584H54.409c.145,0,.145.073,0,.145a17.8,17.8,0,0,0-3.477,2.726,6.151,6.151,0,0,1-4.956,2.278H33.92c-.145,0-.145-.145-.073-.145a20.289,20.289,0,0,0,3.332-2.8,6.313,6.313,0,0,1,4.58-2.205" transform="translate(-14.17 -14.988)"/><path class="a" d="M73.2,39.584H85.851c.145,0,.145.073,0,.145a17.8,17.8,0,0,0-3.477,2.726c-1.406,1.393-2.52,2.278-4.883,2.278H65.363c-.073,0-.073-.145-.073-.145a17.408,17.408,0,0,0,3.332-2.8,6.313,6.313,0,0,1,4.58-2.205" transform="translate(-24.821 -14.988)"/><path class="a" d="M104.63,39.584h12.722c.073,0,.073.073-.073.145a17.8,17.8,0,0,0-3.477,2.726c-1.405,1.393-2.52,2.278-4.883,2.278H96.79c-.073,0-.073-.145,0-.145a20.289,20.289,0,0,0,3.332-2.8,5.984,5.984,0,0,1,4.507-2.205" transform="translate(-35.457 -14.988)"/><path class="b" d="M107.113,2.417C99.128,2.417,93.8,6.536,93.8,12.8c0,5.743,4.883,9.572,12.128,9.572a24.934,24.934,0,0,0,6.882-.957V16.629a7.67,7.67,0,0,1-6,2.653c-4.289,0-7.246-2.8-7.246-6.918,0-4.047,3.029-6.991,7.318-6.991A7.493,7.493,0,0,1,112.5,7.809V2.938a29.071,29.071,0,0,0-5.392-.521" transform="translate(-34.463 -2.417)"/><path class="b" d="M17.163,6.15c2.956,0,6.506.594,7.985,1.842V3.424H4.138V7.992C5.616,6.732,8.8,6.223,12.207,6.223V18.739c0,1.842-.145,2.351-.884,3.308H18.06c-.739-.957-.884-1.478-.884-3.308V6.15Z" transform="translate(-4.138 -2.757)"/><path class="b" d="M50.065,10.633a16.273,16.273,0,0,1-4.507.521H43.789V6.223h2.363c2.145,0,5.767.436,7.173,1.7v-4.5H38.01c.739.884.884,1.478.884,3.235V18.727c0,1.842-.145,2.351-.812,3.308H54.355V17.467c-2.217,1.7-6.506,1.7-8.215,1.7H43.777V13.941h1.7a16.493,16.493,0,0,1,4.592.594Z" transform="translate(-15.594 -2.757)"/><path class="b" d="M81.98,3.683a27.832,27.832,0,0,0-8.057-1.248c-4.435,0-8.724,1.393-8.724,6.107,0,8.094,13.316,3.829,13.316,8.833,0,1.624-2.363,2.278-4.289,2.278A14.353,14.353,0,0,1,65.5,17.144v4.12a28.075,28.075,0,0,0,8.506,1.175c4.58,0,8.881-1.321,8.881-6.107,0-8.542-13.243-4.713-13.243-8.833,0-1.7,2.145-2.278,4-2.278,3.1,0,6.506.957,8.36,2.8V3.683Z" transform="translate(-24.79 -2.423)"/><path class="b" d="M135.915,2.875c-7.173,0-12.274,4.12-12.274,9.935,0,5.743,4.592,9.5,11.317,9.5,7.246,0,12.286-3.974,12.286-9.863,0-5.755-4.592-9.572-11.329-9.572m-.509,16.636c-3.853,0-6.288-3.09-6.288-6.918s2.435-6.918,6.288-6.918c3.768,0,6.288,3.09,6.288,6.918s-2.52,6.918-6.288,6.918" transform="translate(-44.557 -2.572)"/></g></g></g></svg>