<svg xmlns="http://www.w3.org/2000/svg" width="133.56" height="29.981" viewBox="0 0 133.56 29.981"><defs><style>.a{fill-rule:evenodd;}</style></defs><path class="a" d="M148.247.266v12.84H155.7V11.449h-5.609V7.458h5.251V5.82h-5.251V1.9h5.441V.266Z" transform="translate(-22.14 -0.084)"/><path d="M85.217.266v12.84h1.846V7.515h.828c.9,0,1.712.395,3.011,2.43l2.033,3.163h2.183L92.859,9.682C91.617,7.8,91.26,7.5,90.505,7.008a3.2,3.2,0,0,0,2.146-3.163,3.56,3.56,0,0,0-3.9-3.576H85.217v0Zm1.846,1.62h1.562c1.394,0,2.146.715,2.146,1.959,0,1.712-1.186,2.051-2.522,2.051H87.063V1.886Z" transform="translate(-12.73 -0.084)"/><path class="a" d="M63.408.266v1.62h4.4V13.106h1.844V1.886h4.481V.266Z" transform="translate(-9.474 -0.084)"/><path d="M34.061.176,28.547,13.09h1.883l1.62-3.784h5.459L39.22,13.09H41.1L35.363.176Zm.641,2.5,2.088,4.97H32.744Z" transform="translate(-4.269 -0.07)"/><path class="a" d="M17.793.263,14.286,9.119,10.707.263H8.956L5.4,9.119,1.854.263H.008l5.2,12.963h.358L9.824,2.713l4.22,10.512H14.4L19.62.263ZM44.3.263h1.846v12.85H44.3Z" transform="translate(-0.008 -0.083)"/><path d="M111.424.052a6.906,6.906,0,0,1,4.958,1.885,6.258,6.258,0,0,1,1.98,4.728,6.159,6.159,0,0,1-2,4.7,7.11,7.11,0,0,1-5.042,1.862,6.7,6.7,0,0,1-4.838-1.862A6.207,6.207,0,0,1,104.55,6.7,6.349,6.349,0,0,1,106.5,1.937,6.8,6.8,0,0,1,111.424.052ZM111.5,1.8a4.982,4.982,0,0,0-3.625,1.38A4.7,4.7,0,0,0,106.454,6.7a4.623,4.623,0,0,0,1.424,3.459,5.286,5.286,0,0,0,7.153-.028,4.71,4.71,0,0,0,1.437-3.5,4.6,4.6,0,0,0-1.437-3.436A4.877,4.877,0,0,0,111.5,1.8Z" transform="translate(-15.616 -0.052)"/><path class="a" d="M133.78,7.707l-1.4-.849a6.84,6.84,0,0,1-1.83-1.567,2.873,2.873,0,0,1-.621-1.823A3.16,3.16,0,0,1,130.984,1a3.987,3.987,0,0,1,2.76-.937,4.926,4.926,0,0,1,2.951.9V3.06a4.254,4.254,0,0,0-2.988-1.336,2.467,2.467,0,0,0-1.481.418,1.279,1.279,0,0,0-.579,1.075,1.494,1.494,0,0,0,.378,1.041,5.729,5.729,0,0,0,1.421,1.1l1.458.831a4.058,4.058,0,0,1,2.3,3.574,3.31,3.31,0,0,1-1.045,2.522,3.67,3.67,0,0,1-2.679.967,5.7,5.7,0,0,1-3.468-1.184V9.731a4.3,4.3,0,0,0,3.449,1.86,2.151,2.151,0,0,0,1.44-.455,1.523,1.523,0,0,0,.591-1.2C135.49,9.149,134.908,8.409,133.78,7.707Z" transform="translate(-19.406 -0.054)"/><g transform="translate(18.648 22.284)"><path d="M43.822,33.868V26.344h2.4a2.456,2.456,0,0,1,1.717.581,2,2,0,0,1,.639,1.56,2.116,2.116,0,0,1-.318,1.174,1.89,1.89,0,0,1-.907.722,4.189,4.189,0,0,1-1.636.228H44.9v3.26H43.822v0ZM46.037,27.3H44.9V29.65h1.2c.808,0,1.366-.36,1.366-1.2Q47.468,27.3,46.037,27.3Zm9.056-.99h.757l3.369,7.557h-1.1l-1-2.227h-3.2l-.939,2.227H51.868Zm1.581,4.375-1.211-2.723-1.124,2.723Z" transform="translate(-25.198 -26.256)"/><path class="a" d="M78.387,26.347H84.7V27.3H82.084v6.569H81V27.3H78.387Zm17.326.012h1.022v7.515H95.81l-5.062-5.787v5.787H89.737V26.359h.872L95.715,32.2V26.359Zm6.726,0H106.7v.958h-3.184v2.291h3.076v.962h-3.076V32.9H106.8v.958h-4.363v-7.5Z" transform="translate(-30.359 -26.262)"/><path d="M67.571,33.876V26.361h1.906a2.717,2.717,0,0,1,1.809.565,1.89,1.89,0,0,1,.669,1.527,1.952,1.952,0,0,1-.328,1.135,1.9,1.9,0,0,1-.921.715,3.286,3.286,0,0,1,.7.646,13.67,13.67,0,0,1,.958,1.426c.261.427.482.748.641.962l.4.538H72.112s-.346-.545-.378-.586l-.542-.844-.4-.586a6.137,6.137,0,0,0-.611-.748,2.18,2.18,0,0,0-.48-.385,1.8,1.8,0,0,0-.773-.12h-.279v3.269Zm1.419-6.6h-.323v2.372h.408a3,3,0,0,0,1.121-.141,1.131,1.131,0,0,0,.644-1.066,1.078,1.078,0,0,0-.718-1.05,4.031,4.031,0,0,0-1.133-.115Zm41.433,6.6V26.361h1.906a2.717,2.717,0,0,1,1.809.565,1.89,1.89,0,0,1,.669,1.527,1.952,1.952,0,0,1-.328,1.135,1.9,1.9,0,0,1-.921.715,3.286,3.286,0,0,1,.7.646,13.67,13.67,0,0,1,.958,1.426c.261.427.482.748.641.962l.4.538h-1.294s-.346-.545-.378-.586l-.542-.844-.4-.586a6.136,6.136,0,0,0-.611-.748,2.181,2.181,0,0,0-.48-.385,1.8,1.8,0,0,0-.773-.12H111.5v3.269Zm1.421-6.6h-.323v2.372h.408a3,3,0,0,0,1.121-.141,1.131,1.131,0,0,0,.644-1.066,1.078,1.078,0,0,0-.718-1.05,4.042,4.042,0,0,0-1.133-.115Z" transform="translate(-28.744 -26.264)"/><path class="a" d="M132.335,30.709l-.817-.5a3.7,3.7,0,0,1-1.094-.925,1.747,1.747,0,0,1-.325-1.045,1.85,1.85,0,0,1,.616-1.442,2.3,2.3,0,0,1,1.6-.554,3.02,3.02,0,0,1,1.726.528V28a2.489,2.489,0,0,0-1.749-.782,1.438,1.438,0,0,0-.865.245.743.743,0,0,0-.339.625.96.96,0,0,0,.249.632,3.1,3.1,0,0,0,.8.618l.821.487a2.407,2.407,0,0,1,1.375,2.09,1.912,1.912,0,0,1-.6,1.467,2.216,2.216,0,0,1-1.574.565,3.3,3.3,0,0,1-2.028-.685V31.893A2.534,2.534,0,0,0,132.149,33a1.271,1.271,0,0,0,.842-.281.881.881,0,0,0,.337-.7c0-.459-.335-.893-.992-1.3Z" transform="translate(-38.079 -26.247)"/><path d="M27.037,32.193a6.366,6.366,0,0,0,.941-2.081l-.928,0a7.114,7.114,0,0,1-.628,1.417L25.065,30.05a2.389,2.389,0,0,0,1.322-1.936,1.562,1.562,0,0,0-.556-1.2,1.994,1.994,0,0,0-1.354-.468,1.872,1.872,0,0,0-1.341.48,1.5,1.5,0,0,0-.489,1.248,2.923,2.923,0,0,0,.921,1.728,7.413,7.413,0,0,0-.708.473,2.046,2.046,0,0,0-.9,2.058,1.859,1.859,0,0,0,1.857,1.525,3.336,3.336,0,0,0,2.6-.955l.84.884h1.359l-1.578-1.7Zm-2.522-4.829a.831.831,0,0,1,.907.632,1.151,1.151,0,0,1-.42.99,3.682,3.682,0,0,1-.561.431,2.879,2.879,0,0,1-.568-.685,1.391,1.391,0,0,1-.2-.665.781.781,0,0,1,.844-.7Zm-1.35,5.217c-.431-.944.381-1.56,1.034-1.95,0,0,1.209,1.315,1.574,1.714C25.083,33.134,23.532,33.377,23.166,32.581Z" transform="translate(-21.929 -26.277)"/></g></svg>